<mxfile host="app.diagrams.net" modified="2023-05-29T13:05:51.626Z" agent="Mozilla/5.0 (Macintosh; Intel Mac OS X 10_15_7) AppleWebKit/537.36 (KHTML, like Gecko) Chrome/113.0.0.0 Safari/537.36" etag="SuuX1sjekI2miXSuUC0K" version="21.3.5" type="github">
  <diagram name="Page-1" id="74e2e168-ea6b-b213-b513-2b3c1d86103e">
    <mxGraphModel dx="1366" dy="710" grid="1" gridSize="10" guides="1" tooltips="1" connect="1" arrows="1" fold="1" page="1" pageScale="1" pageWidth="1100" pageHeight="850" background="none" math="0" shadow="0">
      <root>
        <mxCell id="0" />
        <mxCell id="1" parent="0" />
        <mxCell id="77e6c97f196da883-1" value="研发流程-需求" style="swimlane;html=1;childLayout=stackLayout;startSize=20;rounded=0;shadow=0;labelBackgroundColor=none;strokeWidth=1;fontFamily=Verdana;fontSize=8;align=center;" parent="1" vertex="1">
          <mxGeometry y="40" width="500" height="820" as="geometry" />
        </mxCell>
        <mxCell id="77e6c97f196da883-2" value="产品" style="swimlane;html=1;startSize=20;" parent="77e6c97f196da883-1" vertex="1">
          <mxGeometry y="20" width="160" height="800" as="geometry" />
        </mxCell>
        <mxCell id="77e6c97f196da883-8" value="需求评审" style="rounded=1;whiteSpace=wrap;html=1;shadow=0;labelBackgroundColor=none;strokeWidth=1;fontFamily=Verdana;fontSize=8;align=center;" parent="77e6c97f196da883-2" vertex="1">
          <mxGeometry x="20" y="30" width="100" height="60" as="geometry" />
        </mxCell>
        <mxCell id="brVtW9YktOYCPZosS9s9-7" value="可对外公布预计上线时间" style="rounded=1;whiteSpace=wrap;html=1;fontSize=8;fontFamily=Verdana;shadow=0;labelBackgroundColor=none;strokeWidth=1;" vertex="1" parent="77e6c97f196da883-2">
          <mxGeometry x="10" y="200" width="110" height="60" as="geometry" />
        </mxCell>
        <mxCell id="brVtW9YktOYCPZosS9s9-13" value="产品体验" style="rounded=1;whiteSpace=wrap;html=1;fontSize=8;fontFamily=Verdana;shadow=0;labelBackgroundColor=none;strokeWidth=1;" vertex="1" parent="77e6c97f196da883-2">
          <mxGeometry x="20" y="400" width="110" height="60" as="geometry" />
        </mxCell>
        <mxCell id="77e6c97f196da883-26" style="edgeStyle=orthogonalEdgeStyle;rounded=1;html=1;labelBackgroundColor=none;startArrow=none;startFill=0;startSize=5;endArrow=classicThin;endFill=1;endSize=5;jettySize=auto;orthogonalLoop=1;strokeWidth=1;fontFamily=Verdana;fontSize=8" parent="77e6c97f196da883-1" source="77e6c97f196da883-8" target="77e6c97f196da883-11" edge="1">
          <mxGeometry relative="1" as="geometry" />
        </mxCell>
        <mxCell id="77e6c97f196da883-3" value="研发" style="swimlane;html=1;startSize=20;" parent="77e6c97f196da883-1" vertex="1">
          <mxGeometry x="160" y="20" width="160" height="800" as="geometry" />
        </mxCell>
        <mxCell id="brVtW9YktOYCPZosS9s9-2" value="" style="edgeStyle=orthogonalEdgeStyle;rounded=0;orthogonalLoop=1;jettySize=auto;html=1;" edge="1" parent="77e6c97f196da883-3" source="77e6c97f196da883-11" target="brVtW9YktOYCPZosS9s9-1">
          <mxGeometry relative="1" as="geometry" />
        </mxCell>
        <mxCell id="77e6c97f196da883-11" value="技术方案准备" style="rounded=1;whiteSpace=wrap;html=1;shadow=0;labelBackgroundColor=none;strokeWidth=1;fontFamily=Verdana;fontSize=8;align=center;" parent="77e6c97f196da883-3" vertex="1">
          <mxGeometry x="30" y="30" width="100" height="60" as="geometry" />
        </mxCell>
        <mxCell id="brVtW9YktOYCPZosS9s9-1" value="技术方案评审&lt;br&gt;&lt;font color=&quot;#9999ff&quot;&gt;开发计划排期-甘特图&lt;/font&gt;" style="rounded=1;whiteSpace=wrap;html=1;fontSize=8;fontFamily=Verdana;shadow=0;labelBackgroundColor=none;strokeWidth=1;" vertex="1" parent="77e6c97f196da883-3">
          <mxGeometry x="20" y="110" width="120" height="60" as="geometry" />
        </mxCell>
        <mxCell id="brVtW9YktOYCPZosS9s9-12" value="" style="edgeStyle=orthogonalEdgeStyle;rounded=0;orthogonalLoop=1;jettySize=auto;html=1;" edge="1" parent="77e6c97f196da883-3" source="brVtW9YktOYCPZosS9s9-5" target="brVtW9YktOYCPZosS9s9-11">
          <mxGeometry relative="1" as="geometry" />
        </mxCell>
        <mxCell id="brVtW9YktOYCPZosS9s9-5" value="&lt;font color=&quot;#9999ff&quot;&gt;填写开发&amp;amp;测试计划&lt;/font&gt;排期并启动开发" style="rounded=1;whiteSpace=wrap;html=1;fontSize=8;fontFamily=Verdana;shadow=0;labelBackgroundColor=none;strokeWidth=1;" vertex="1" parent="77e6c97f196da883-3">
          <mxGeometry x="20" y="200" width="110" height="60" as="geometry" />
        </mxCell>
        <mxCell id="brVtW9YktOYCPZosS9s9-11" value="开发" style="rounded=1;whiteSpace=wrap;html=1;fontSize=8;fontFamily=Verdana;shadow=0;labelBackgroundColor=none;strokeWidth=1;" vertex="1" parent="77e6c97f196da883-3">
          <mxGeometry x="20" y="300" width="110" height="60" as="geometry" />
        </mxCell>
        <mxCell id="brVtW9YktOYCPZosS9s9-18" value="bug修复" style="rounded=1;whiteSpace=wrap;html=1;fontSize=8;fontFamily=Verdana;shadow=0;labelBackgroundColor=none;strokeWidth=1;" vertex="1" parent="77e6c97f196da883-3">
          <mxGeometry x="20" y="400" width="110" height="180" as="geometry" />
        </mxCell>
        <mxCell id="77e6c97f196da883-4" value="测试" style="swimlane;html=1;startSize=20;" parent="77e6c97f196da883-1" vertex="1">
          <mxGeometry x="320" y="20" width="180" height="800" as="geometry" />
        </mxCell>
        <mxCell id="brVtW9YktOYCPZosS9s9-10" value="" style="edgeStyle=orthogonalEdgeStyle;rounded=0;orthogonalLoop=1;jettySize=auto;html=1;" edge="1" parent="77e6c97f196da883-4" source="brVtW9YktOYCPZosS9s9-3" target="brVtW9YktOYCPZosS9s9-9">
          <mxGeometry relative="1" as="geometry" />
        </mxCell>
        <mxCell id="brVtW9YktOYCPZosS9s9-3" value="&lt;font color=&quot;#9999ff&quot;&gt;测试计划排期-甘特图&lt;/font&gt;" style="rounded=1;whiteSpace=wrap;html=1;fontSize=8;fontFamily=Verdana;shadow=0;labelBackgroundColor=none;strokeWidth=1;" vertex="1" parent="77e6c97f196da883-4">
          <mxGeometry x="35" y="115" width="120" height="50" as="geometry" />
        </mxCell>
        <mxCell id="brVtW9YktOYCPZosS9s9-9" value="测试方案评审" style="rounded=1;whiteSpace=wrap;html=1;fontSize=8;fontFamily=Verdana;shadow=0;labelBackgroundColor=none;strokeWidth=1;" vertex="1" parent="77e6c97f196da883-4">
          <mxGeometry x="40" y="220" width="110" height="60" as="geometry" />
        </mxCell>
        <mxCell id="brVtW9YktOYCPZosS9s9-20" value="" style="edgeStyle=orthogonalEdgeStyle;rounded=0;orthogonalLoop=1;jettySize=auto;html=1;" edge="1" parent="77e6c97f196da883-4" source="brVtW9YktOYCPZosS9s9-16" target="brVtW9YktOYCPZosS9s9-19">
          <mxGeometry relative="1" as="geometry" />
        </mxCell>
        <mxCell id="brVtW9YktOYCPZosS9s9-16" value="测试" style="rounded=1;whiteSpace=wrap;html=1;fontSize=8;fontFamily=Verdana;shadow=0;labelBackgroundColor=none;strokeWidth=1;" vertex="1" parent="77e6c97f196da883-4">
          <mxGeometry x="45" y="460" width="100" height="130" as="geometry" />
        </mxCell>
        <mxCell id="brVtW9YktOYCPZosS9s9-19" value="上线" style="rounded=1;whiteSpace=wrap;html=1;fontSize=8;fontFamily=Verdana;shadow=0;labelBackgroundColor=none;strokeWidth=1;" vertex="1" parent="77e6c97f196da883-4">
          <mxGeometry x="47.5" y="620" width="95" height="90" as="geometry" />
        </mxCell>
        <mxCell id="brVtW9YktOYCPZosS9s9-4" value="" style="edgeStyle=orthogonalEdgeStyle;rounded=0;orthogonalLoop=1;jettySize=auto;html=1;" edge="1" parent="77e6c97f196da883-1" source="brVtW9YktOYCPZosS9s9-1" target="brVtW9YktOYCPZosS9s9-3">
          <mxGeometry relative="1" as="geometry" />
        </mxCell>
        <mxCell id="brVtW9YktOYCPZosS9s9-6" value="" style="edgeStyle=orthogonalEdgeStyle;rounded=0;orthogonalLoop=1;jettySize=auto;html=1;" edge="1" parent="77e6c97f196da883-1" source="brVtW9YktOYCPZosS9s9-3" target="brVtW9YktOYCPZosS9s9-5">
          <mxGeometry relative="1" as="geometry">
            <Array as="points">
              <mxPoint x="415" y="210" />
              <mxPoint x="235" y="210" />
            </Array>
          </mxGeometry>
        </mxCell>
        <mxCell id="brVtW9YktOYCPZosS9s9-8" value="" style="edgeStyle=orthogonalEdgeStyle;rounded=0;orthogonalLoop=1;jettySize=auto;html=1;" edge="1" parent="77e6c97f196da883-1" source="brVtW9YktOYCPZosS9s9-5" target="brVtW9YktOYCPZosS9s9-7">
          <mxGeometry relative="1" as="geometry" />
        </mxCell>
        <mxCell id="brVtW9YktOYCPZosS9s9-14" value="" style="edgeStyle=orthogonalEdgeStyle;rounded=0;orthogonalLoop=1;jettySize=auto;html=1;exitX=0.5;exitY=1;exitDx=0;exitDy=0;" edge="1" parent="77e6c97f196da883-1" source="brVtW9YktOYCPZosS9s9-11" target="brVtW9YktOYCPZosS9s9-13">
          <mxGeometry relative="1" as="geometry" />
        </mxCell>
        <mxCell id="brVtW9YktOYCPZosS9s9-17" value="" style="edgeStyle=orthogonalEdgeStyle;rounded=0;orthogonalLoop=1;jettySize=auto;html=1;exitX=0.5;exitY=1;exitDx=0;exitDy=0;" edge="1" parent="77e6c97f196da883-1" source="brVtW9YktOYCPZosS9s9-13" target="brVtW9YktOYCPZosS9s9-16">
          <mxGeometry relative="1" as="geometry" />
        </mxCell>
        <mxCell id="brVtW9YktOYCPZosS9s9-21" value="研发流程-功能" style="swimlane;html=1;childLayout=stackLayout;startSize=20;rounded=0;shadow=0;labelBackgroundColor=none;strokeWidth=1;fontFamily=Verdana;fontSize=8;align=center;" vertex="1" parent="1">
          <mxGeometry x="560" y="40" width="500" height="820" as="geometry" />
        </mxCell>
        <mxCell id="brVtW9YktOYCPZosS9s9-22" value="产品" style="swimlane;html=1;startSize=20;" vertex="1" parent="brVtW9YktOYCPZosS9s9-21">
          <mxGeometry y="20" width="160" height="800" as="geometry" />
        </mxCell>
        <mxCell id="brVtW9YktOYCPZosS9s9-23" value="需求评审" style="rounded=1;whiteSpace=wrap;html=1;shadow=0;labelBackgroundColor=none;strokeWidth=1;fontFamily=Verdana;fontSize=8;align=center;" vertex="1" parent="brVtW9YktOYCPZosS9s9-22">
          <mxGeometry x="20" y="30" width="100" height="60" as="geometry" />
        </mxCell>
        <mxCell id="brVtW9YktOYCPZosS9s9-24" value="可对外公布预计上线时间" style="rounded=1;whiteSpace=wrap;html=1;fontSize=8;fontFamily=Verdana;shadow=0;labelBackgroundColor=none;strokeWidth=1;" vertex="1" parent="brVtW9YktOYCPZosS9s9-22">
          <mxGeometry x="10" y="200" width="110" height="60" as="geometry" />
        </mxCell>
        <mxCell id="brVtW9YktOYCPZosS9s9-25" value="产品体验" style="rounded=1;whiteSpace=wrap;html=1;fontSize=8;fontFamily=Verdana;shadow=0;labelBackgroundColor=none;strokeWidth=1;" vertex="1" parent="brVtW9YktOYCPZosS9s9-22">
          <mxGeometry x="20" y="400" width="110" height="60" as="geometry" />
        </mxCell>
        <mxCell id="brVtW9YktOYCPZosS9s9-26" style="edgeStyle=orthogonalEdgeStyle;rounded=1;html=1;labelBackgroundColor=none;startArrow=none;startFill=0;startSize=5;endArrow=classicThin;endFill=1;endSize=5;jettySize=auto;orthogonalLoop=1;strokeWidth=1;fontFamily=Verdana;fontSize=8" edge="1" parent="brVtW9YktOYCPZosS9s9-21" source="brVtW9YktOYCPZosS9s9-23" target="brVtW9YktOYCPZosS9s9-29">
          <mxGeometry relative="1" as="geometry" />
        </mxCell>
        <mxCell id="brVtW9YktOYCPZosS9s9-27" value="研发" style="swimlane;html=1;startSize=20;" vertex="1" parent="brVtW9YktOYCPZosS9s9-21">
          <mxGeometry x="160" y="20" width="160" height="800" as="geometry" />
        </mxCell>
        <mxCell id="brVtW9YktOYCPZosS9s9-28" value="" style="edgeStyle=orthogonalEdgeStyle;rounded=0;orthogonalLoop=1;jettySize=auto;html=1;" edge="1" parent="brVtW9YktOYCPZosS9s9-27" source="brVtW9YktOYCPZosS9s9-29" target="brVtW9YktOYCPZosS9s9-30">
          <mxGeometry relative="1" as="geometry" />
        </mxCell>
        <mxCell id="brVtW9YktOYCPZosS9s9-29" value="技术方案准备" style="rounded=1;whiteSpace=wrap;html=1;shadow=0;labelBackgroundColor=none;strokeWidth=1;fontFamily=Verdana;fontSize=8;align=center;" vertex="1" parent="brVtW9YktOYCPZosS9s9-27">
          <mxGeometry x="30" y="30" width="100" height="60" as="geometry" />
        </mxCell>
        <mxCell id="brVtW9YktOYCPZosS9s9-30" value="技术方案评审&lt;br&gt;开发计划排期" style="rounded=1;whiteSpace=wrap;html=1;fontSize=8;fontFamily=Verdana;shadow=0;labelBackgroundColor=none;strokeWidth=1;" vertex="1" parent="brVtW9YktOYCPZosS9s9-27">
          <mxGeometry x="20" y="110" width="120" height="60" as="geometry" />
        </mxCell>
        <mxCell id="brVtW9YktOYCPZosS9s9-31" value="" style="edgeStyle=orthogonalEdgeStyle;rounded=0;orthogonalLoop=1;jettySize=auto;html=1;" edge="1" parent="brVtW9YktOYCPZosS9s9-27" source="brVtW9YktOYCPZosS9s9-32" target="brVtW9YktOYCPZosS9s9-33">
          <mxGeometry relative="1" as="geometry" />
        </mxCell>
        <mxCell id="brVtW9YktOYCPZosS9s9-32" value="填写开发&amp;amp;测试计划排期并启动开发" style="rounded=1;whiteSpace=wrap;html=1;fontSize=8;fontFamily=Verdana;shadow=0;labelBackgroundColor=none;strokeWidth=1;" vertex="1" parent="brVtW9YktOYCPZosS9s9-27">
          <mxGeometry x="20" y="200" width="110" height="60" as="geometry" />
        </mxCell>
        <mxCell id="brVtW9YktOYCPZosS9s9-33" value="开发" style="rounded=1;whiteSpace=wrap;html=1;fontSize=8;fontFamily=Verdana;shadow=0;labelBackgroundColor=none;strokeWidth=1;" vertex="1" parent="brVtW9YktOYCPZosS9s9-27">
          <mxGeometry x="20" y="300" width="110" height="60" as="geometry" />
        </mxCell>
        <mxCell id="brVtW9YktOYCPZosS9s9-34" value="bug修复" style="rounded=1;whiteSpace=wrap;html=1;fontSize=8;fontFamily=Verdana;shadow=0;labelBackgroundColor=none;strokeWidth=1;" vertex="1" parent="brVtW9YktOYCPZosS9s9-27">
          <mxGeometry x="20" y="400" width="110" height="180" as="geometry" />
        </mxCell>
        <mxCell id="brVtW9YktOYCPZosS9s9-35" value="测试" style="swimlane;html=1;startSize=20;" vertex="1" parent="brVtW9YktOYCPZosS9s9-21">
          <mxGeometry x="320" y="20" width="180" height="800" as="geometry" />
        </mxCell>
        <mxCell id="brVtW9YktOYCPZosS9s9-36" value="" style="edgeStyle=orthogonalEdgeStyle;rounded=0;orthogonalLoop=1;jettySize=auto;html=1;" edge="1" parent="brVtW9YktOYCPZosS9s9-35" source="brVtW9YktOYCPZosS9s9-37" target="brVtW9YktOYCPZosS9s9-38">
          <mxGeometry relative="1" as="geometry" />
        </mxCell>
        <mxCell id="brVtW9YktOYCPZosS9s9-37" value="测试计划排期" style="rounded=1;whiteSpace=wrap;html=1;fontSize=8;fontFamily=Verdana;shadow=0;labelBackgroundColor=none;strokeWidth=1;" vertex="1" parent="brVtW9YktOYCPZosS9s9-35">
          <mxGeometry x="40" y="110" width="110" height="60" as="geometry" />
        </mxCell>
        <mxCell id="brVtW9YktOYCPZosS9s9-38" value="测试方案评审" style="rounded=1;whiteSpace=wrap;html=1;fontSize=8;fontFamily=Verdana;shadow=0;labelBackgroundColor=none;strokeWidth=1;" vertex="1" parent="brVtW9YktOYCPZosS9s9-35">
          <mxGeometry x="40" y="220" width="110" height="60" as="geometry" />
        </mxCell>
        <mxCell id="brVtW9YktOYCPZosS9s9-39" value="" style="edgeStyle=orthogonalEdgeStyle;rounded=0;orthogonalLoop=1;jettySize=auto;html=1;" edge="1" parent="brVtW9YktOYCPZosS9s9-35" source="brVtW9YktOYCPZosS9s9-40" target="brVtW9YktOYCPZosS9s9-41">
          <mxGeometry relative="1" as="geometry" />
        </mxCell>
        <mxCell id="brVtW9YktOYCPZosS9s9-40" value="测试" style="rounded=1;whiteSpace=wrap;html=1;fontSize=8;fontFamily=Verdana;shadow=0;labelBackgroundColor=none;strokeWidth=1;" vertex="1" parent="brVtW9YktOYCPZosS9s9-35">
          <mxGeometry x="45" y="460" width="100" height="130" as="geometry" />
        </mxCell>
        <mxCell id="brVtW9YktOYCPZosS9s9-41" value="上线" style="rounded=1;whiteSpace=wrap;html=1;fontSize=8;fontFamily=Verdana;shadow=0;labelBackgroundColor=none;strokeWidth=1;" vertex="1" parent="brVtW9YktOYCPZosS9s9-35">
          <mxGeometry x="47.5" y="620" width="95" height="90" as="geometry" />
        </mxCell>
        <mxCell id="brVtW9YktOYCPZosS9s9-42" value="" style="edgeStyle=orthogonalEdgeStyle;rounded=0;orthogonalLoop=1;jettySize=auto;html=1;" edge="1" parent="brVtW9YktOYCPZosS9s9-21" source="brVtW9YktOYCPZosS9s9-30" target="brVtW9YktOYCPZosS9s9-37">
          <mxGeometry relative="1" as="geometry" />
        </mxCell>
        <mxCell id="brVtW9YktOYCPZosS9s9-43" value="" style="edgeStyle=orthogonalEdgeStyle;rounded=0;orthogonalLoop=1;jettySize=auto;html=1;" edge="1" parent="brVtW9YktOYCPZosS9s9-21" source="brVtW9YktOYCPZosS9s9-37" target="brVtW9YktOYCPZosS9s9-32">
          <mxGeometry relative="1" as="geometry">
            <Array as="points">
              <mxPoint x="415" y="210" />
              <mxPoint x="235" y="210" />
            </Array>
          </mxGeometry>
        </mxCell>
        <mxCell id="brVtW9YktOYCPZosS9s9-44" value="" style="edgeStyle=orthogonalEdgeStyle;rounded=0;orthogonalLoop=1;jettySize=auto;html=1;" edge="1" parent="brVtW9YktOYCPZosS9s9-21" source="brVtW9YktOYCPZosS9s9-32" target="brVtW9YktOYCPZosS9s9-24">
          <mxGeometry relative="1" as="geometry" />
        </mxCell>
        <mxCell id="brVtW9YktOYCPZosS9s9-45" value="" style="edgeStyle=orthogonalEdgeStyle;rounded=0;orthogonalLoop=1;jettySize=auto;html=1;exitX=0.5;exitY=1;exitDx=0;exitDy=0;" edge="1" parent="brVtW9YktOYCPZosS9s9-21" source="brVtW9YktOYCPZosS9s9-33" target="brVtW9YktOYCPZosS9s9-25">
          <mxGeometry relative="1" as="geometry" />
        </mxCell>
        <mxCell id="brVtW9YktOYCPZosS9s9-46" value="" style="edgeStyle=orthogonalEdgeStyle;rounded=0;orthogonalLoop=1;jettySize=auto;html=1;exitX=0.5;exitY=1;exitDx=0;exitDy=0;" edge="1" parent="brVtW9YktOYCPZosS9s9-21" source="brVtW9YktOYCPZosS9s9-25" target="brVtW9YktOYCPZosS9s9-40">
          <mxGeometry relative="1" as="geometry" />
        </mxCell>
      </root>
    </mxGraphModel>
  </diagram>
</mxfile>
